<svg xmlns="http://www.w3.org/2000/svg" viewBox="0 0 240 160" fill="none">
  <defs>
    <linearGradient id="bg3" x1="0" y1="0" x2="240" y2="160" gradientUnits="userSpaceOnUse">
      <stop offset="0%" stop-color="#0f1117"/>
      <stop offset="100%" stop-color="#161822"/>
    </linearGradient>
    <linearGradient id="rest" x1="60" y1="60" x2="180" y2="100" gradientUnits="userSpaceOnUse">
      <stop offset="0%" stop-color="#2a2d42"/>
      <stop offset="100%" stop-color="#1e2030"/>
    </linearGradient>
  </defs>
  <rect width="240" height="160" rx="16" fill="url(#bg3)"/>
  <ellipse cx="120" cy="110" rx="65" ry="10" fill="#0a0b0f" opacity=".5"/>
  <path d="M55 75 C55 60 185 60 185 75 L180 95 C180 100 60 100 60 95 Z" fill="url(#rest)" stroke="#4f8cff" stroke-width="1" opacity=".9"/>
  <path d="M55 75 C55 60 185 60 185 75" fill="none" stroke="#4f8cff" stroke-width="0.5" opacity=".3"/>
  <path d="M70 78 C70 72 170 72 170 78" fill="none" stroke="#4f8cff" stroke-width="0.3" opacity=".2"/>
  <ellipse cx="120" cy="80" rx="40" ry="4" fill="#4f8cff" opacity=".06"/>
  <path d="M85 70 Q120 65 155 70" fill="none" stroke="#4f8cff" stroke-width="0.5" opacity=".2"/>
  <circle cx="75" cy="82" r="1" fill="#4f8cff" opacity=".3"/>
  <circle cx="165" cy="82" r="1" fill="#4f8cff" opacity=".3"/>
  <text x="120" y="120" text-anchor="middle" fill="#6b7288" font-size="8" font-family="Inter,sans-serif" font-weight="600" letter-spacing="1">ERGONÓMICO</text>
  <text x="120" y="142" text-anchor="middle" fill="#6b7288" font-size="9" font-family="Inter,sans-serif" font-weight="600" letter-spacing="1">GIMARS</text>
</svg>
